<svg width="497" height="512" viewBox="0 0 497 512" fill="none" xmlns="http://www.w3.org/2000/svg">
<path d="M166.4 397.4C166.4 399.4 164.1 401 161.2 401C157.9 401.3 155.6 399.7 155.6 397.4C155.6 395.4 157.9 393.8 160.8 393.8C163.8 393.5 166.4 395.1 166.4 397.4ZM135.3 392.9C134.6 394.9 136.6 397.2 139.6 397.8C142.2 398.8 145.2 397.8 145.8 395.8C146.4 393.8 144.5 391.5 141.5 390.6C138.9 389.9 136 390.9 135.3 392.9ZM179.5 391.2C176.6 391.9 174.6 393.8 174.9 396.1C175.2 398.1 177.8 399.4 180.8 398.7C183.7 398 185.7 396.1 185.4 394.1C185.1 392.2 182.4 390.9 179.5 391.2ZM245.3 8C106.6 8 0.5 113.3 0.5 252C0.5 362.9 70.3 457.8 170 491.2C182.8 493.5 187.3 485.6 187.3 479.1C187.3 472.9 187 438.7 187 417.7C187 417.7 117 432.7 102.3 387.9C102.3 387.9 90.9 358.8 74.5 351.3C74.5 351.3 51.6 335.6 76.1 335.9C76.1 335.9 101 337.9 114.7 361.7C136.6 400.3 173.3 389.2 187.6 382.6C189.9 366.6 196.4 355.5 203.6 348.9C147.7 342.7 91.3 334.6 91.3 238.4C91.3 210.9 98.9 197.1 114.9 179.5C112.3 173 103.8 146.2 117.5 111.6C138.4 105.1 186.5 138.6 186.5 138.6C206.5 133 228 130.1 249.3 130.1C270.6 130.1 292.1 133 312.1 138.6C312.1 138.6 360.2 105 381.1 111.6C394.8 146.3 386.3 173 383.7 179.5C399.7 197.2 409.5 211 409.5 238.4C409.5 334.9 350.6 342.6 294.7 348.9C303.9 356.8 311.7 371.8 311.7 395.3C311.7 429 311.4 470.7 311.4 478.9C311.4 485.4 316 493.3 328.7 491C428.7 457.8 496.5 362.9 496.5 252C496.5 113.3 384 8 245.3 8ZM97.7 352.9C96.4 353.9 96.7 356.2 98.4 358.1C100 359.7 102.3 360.4 103.6 359.1C104.9 358.1 104.6 355.8 102.9 353.9C101.3 352.3 99 351.6 97.7 352.9ZM86.9 344.8C86.2 346.1 87.2 347.7 89.2 348.7C90.8 349.7 92.8 349.4 93.5 348C94.2 346.7 93.2 345.1 91.2 344.1C89.2 343.5 87.6 343.8 86.9 344.8ZM119.3 380.4C117.7 381.7 118.3 384.7 120.6 386.6C122.9 388.9 125.8 389.2 127.1 387.6C128.4 386.3 127.8 383.3 125.8 381.4C123.6 379.1 120.6 378.8 119.3 380.4ZM107.9 365.7C106.3 366.7 106.3 369.3 107.9 371.6C109.5 373.9 112.2 374.9 113.5 373.9C115.1 372.6 115.1 370 113.5 367.7C112.1 365.4 109.5 364.4 107.9 365.7Z" fill="#C5BEF3"/>
</svg>
